<svg width="1024" height="1024" viewBox="0 0 1024 1024" fill="none" xmlns="http://www.w3.org/2000/svg">
<path d="M273 100.1V528.1H273.3L273 100.1ZM820.4 525L798.5 506L812.5 480.5C817.079 472.133 819.454 462.738 819.4 453.2C819.4 436.7 812.3 421 799.8 410.2L777.9 391.2L791.8 365.8C796.379 357.433 798.754 348.038 798.7 338.5C798.7 322 791.6 306.3 779.1 295.5L757.2 276.5L771.1 251.1C775.679 242.733 778.054 233.338 778 223.8C778 201.4 764.8 181.2 744.4 172H345V517.2C363.6 584.4 391.4 685.2 428.5 819.7C431.092 828.925 436.607 837.06 444.216 842.884C451.825 848.709 461.118 851.907 470.7 852C478.2 852.1 485.7 849.8 491.8 845.3C501.7 837.9 507 826.7 506.4 814.8L496.8 616.4H811.2C829 605.5 840 587.1 840 568C840 551.5 832.9 535.8 820.4 525Z" fill="#9747FF" fill-opacity="0.15"/>
<path d="M112 132V496C112 513.7 126.3 528 144 528H209V100H144C126.3 100 112 114.3 112 132ZM885.9 490.3C889.5 478.3 891.3 465.9 891.3 453.3C891.3 425 882 397.8 865.2 375.6C868.8 363.6 870.6 351.2 870.6 338.6C870.6 310.3 861.3 283.1 844.5 260.9C848.1 248.9 849.9 236.5 849.9 223.9C849.9 172.3 819.2 125.8 771.6 105.5C763.233 101.893 754.211 100.054 745.1 100.1H273L273.3 528.1L359.1 838.9C372.9 889 418.9 924 470.9 924C500.6 924 528.3 912.2 548.8 890.6C569.3 869.1 579.8 840.9 578.3 811.2L572.3 688.3H812.2C824.3 688.3 836.1 685.1 846.5 679C886.9 655.5 912 612.9 912 568C912 539.7 902.7 512.5 885.9 490.3ZM811.2 616.4H496.8L506.4 814.8C507 826.7 501.7 837.9 491.8 845.3C485.7 849.8 478.2 852.1 470.7 852C461.118 851.907 451.825 848.708 444.216 842.884C436.607 837.06 431.092 828.925 428.5 819.7C391.4 685.3 363.6 584.5 345 517.2V172H744.4C754.396 176.48 762.884 183.752 768.845 192.941C774.806 202.131 777.985 212.847 778 223.8C778 233.5 775.7 242.7 771.1 251.1L757.2 276.5L779.1 295.5C785.264 300.839 790.206 307.443 793.588 314.863C796.97 322.283 798.714 330.345 798.7 338.5C798.7 348.2 796.4 357.4 791.8 365.8L777.9 391.2L799.8 410.2C805.964 415.539 810.906 422.143 814.288 429.563C817.67 436.983 819.414 445.045 819.4 453.2C819.4 462.9 817.1 472.1 812.5 480.5L798.5 506L820.4 525C826.564 530.339 831.506 536.943 834.888 544.363C838.27 551.783 840.014 559.845 840 568C840 587.1 829 605.5 811.2 616.4Z" fill="#9747FF"/>
</svg>
