<svg width="24" height="21" viewBox="0 0 24 21" fill="none" xmlns="http://www.w3.org/2000/svg">
<g filter="url(#filter0_d_136_5)">
<path d="M12 18.35L10.55 17.03C5.4 12.36 2 9.27 2 5.5C2 2.41 4.42 0 7.5 0C9.24 0 10.91 0.81 12 2.08C13.09 0.81 14.76 0 16.5 0C19.58 0 22 2.41 22 5.5C22 9.27 18.6 12.36 13.45 17.03L12 18.35Z" fill="#FF0000"/>
<path d="M10.8866 16.6603L10.8859 16.6596C8.30104 14.3157 6.19578 12.4033 4.73088 10.6111C3.27148 8.82559 2.5 7.22062 2.5 5.5C2.5 2.68674 4.69555 0.5 7.5 0.5C9.08885 0.5 10.6221 1.24223 11.6206 2.40564L12 2.84771L12.3794 2.40564C13.3779 1.24223 14.9112 0.5 16.5 0.5C19.3045 0.5 21.5 2.68674 21.5 5.5C21.5 7.22062 20.7285 8.82559 19.2691 10.6111C17.8042 12.4033 15.699 14.3157 13.1141 16.6596L13.1134 16.6603L12 17.6738L10.8866 16.6603Z" stroke="black"/>
</g>
<defs>
<filter id="filter0_d_136_5" x="-2" y="0" width="28" height="26.35" filterUnits="userSpaceOnUse" color-interpolation-filters="sRGB">
<feFlood flood-opacity="0" result="BackgroundImageFix"/>
<feColorMatrix in="SourceAlpha" type="matrix" values="0 0 0 0 0 0 0 0 0 0 0 0 0 0 0 0 0 0 127 0" result="hardAlpha"/>
<feOffset dy="4"/>
<feGaussianBlur stdDeviation="2"/>
<feComposite in2="hardAlpha" operator="out"/>
<feColorMatrix type="matrix" values="0 0 0 0 0 0 0 0 0 0 0 0 0 0 0 0 0 0 0.25 0"/>
<feBlend mode="normal" in2="BackgroundImageFix" result="effect1_dropShadow_136_5"/>
<feBlend mode="normal" in="SourceGraphic" in2="effect1_dropShadow_136_5" result="shape"/>
</filter>
</defs>
</svg>
